<svg id="svg" version="1.1" xmlns="http://www.w3.org/2000/svg" xmlns:xlink="http://www.w3.org/1999/xlink" width="400" height="400" viewBox="0, 0, 400,400"><g id="svgg"><path id="path0" d="M0.000 200.000 L 0.000 400.000 200.000 400.000 L 400.000 400.000 400.000 200.000 L 400.000 0.000 200.000 0.000 L 0.000 0.000 0.000 200.000 M104.965 97.210 C 105.925 98.096,106.913 99.311,107.160 99.910 C 107.489 100.709,107.581 131.026,107.504 213.410 L 107.400 325.820 106.494 326.972 C 103.093 331.294,98.110 330.901,95.644 326.115 C 95.305 325.458,95.189 296.201,95.192 212.738 L 95.196 100.246 96.214 98.707 C 98.557 95.167,102.092 94.562,104.965 97.210 M189.575 96.982 C 205.097 101.270,216.335 118.469,206.828 123.386 C 203.586 125.062,200.146 123.179,197.005 118.008 C 192.194 110.089,182.665 106.300,174.826 109.190 C 163.286 113.445,158.503 122.701,161.612 134.761 C 164.505 145.985,152.662 149.234,149.077 138.200 C 140.968 113.242,163.911 89.891,189.575 96.982 M281.400 133.683 C 300.152 137.560,310.765 155.929,305.299 175.046 C 301.785 187.337,288.971 198.478,282.147 195.174 C 276.284 192.336,277.011 185.879,283.589 182.374 C 292.475 177.637,296.325 166.947,292.341 158.068 C 287.956 148.296,278.334 143.508,268.949 146.429 C 261.543 148.734,257.600 146.966,257.600 141.339 C 257.600 137.373,259.804 135.288,265.382 133.979 C 272.514 132.304,274.551 132.267,281.400 133.683 M193.874 160.827 C 198.680 162.647,199.620 169.465,195.490 172.544 C 191.051 175.852,183.242 169.698,185.766 164.880 C 187.524 161.524,191.055 159.759,193.874 160.827 M217.592 171.300 C 221.244 173.166,221.948 175.904,220.209 181.480 C 216.745 192.591,211.843 196.747,207.175 192.530 C 204.174 189.818,203.762 187.916,205.348 184.088 C 205.870 182.830,206.685 180.613,207.160 179.163 C 209.521 171.951,213.297 169.106,217.592 171.300 M240.913 179.339 C 242.480 179.995,245.084 182.799,245.439 184.212 C 247.031 190.555,237.398 194.934,233.596 189.594 C 230.018 184.569,235.397 177.030,240.913 179.339 M163.214 183.472 C 165.901 185.059,166.481 187.209,166.544 195.802 C 166.614 205.478,166.551 205.362,171.980 205.714 C 178.708 206.149,181.880 209.939,179.680 214.913 C 178.320 217.987,177.684 218.162,167.000 218.397 C 157.850 218.599,157.792 218.606,156.265 219.660 C 151.096 223.232,152.904 229.051,159.592 230.367 C 164.496 231.331,166.502 235.294,164.414 239.892 C 163.183 242.604,161.716 243.274,157.377 243.108 C 140.144 242.449,133.937 218.246,148.615 208.941 C 153.914 205.582,154.109 205.087,153.938 195.446 C 153.751 184.912,157.487 180.089,163.214 183.472 M258.441 213.700 C 260.976 215.380,262.106 218.370,261.803 222.600 C 260.814 236.430,258.437 246.902,254.381 255.288 C 253.512 257.086,252.800 258.774,252.800 259.039 C 252.800 259.303,252.151 260.483,251.358 261.660 C 250.565 262.837,249.494 264.610,248.978 265.600 C 244.315 274.549,223.224 295.200,218.747 295.200 C 218.545 295.200,217.482 295.818,216.384 296.574 C 215.285 297.329,213.444 298.300,212.293 298.731 C 211.142 299.162,209.307 299.990,208.215 300.571 C 207.123 301.152,205.233 301.907,204.015 302.249 C 202.797 302.590,199.846 303.492,197.457 304.251 C 192.331 305.882,182.167 307.200,174.727 307.200 C 166.621 307.200,166.404 307.483,166.401 318.040 L 166.400 325.480 165.208 327.126 C 162.464 330.913,158.165 331.061,155.420 327.462 C 154.000 325.600,153.657 323.206,153.874 316.655 C 154.129 308.946,153.814 307.948,150.424 305.713 C 142.652 300.588,140.169 296.047,140.474 287.515 C 140.649 282.641,140.928 281.805,143.849 277.406 C 149.744 268.527,165.200 267.654,165.200 276.200 C 165.200 279.531,162.995 281.748,158.214 283.225 C 154.378 284.409,153.600 285.304,153.600 288.528 C 153.600 293.540,155.460 294.484,165.800 294.719 C 181.927 295.084,194.579 292.718,205.599 287.276 C 217.615 281.342,224.150 276.020,233.933 264.200 C 237.073 260.406,244.000 248.286,244.000 246.585 C 244.000 246.257,244.621 244.448,245.381 242.565 C 246.980 238.597,248.721 229.200,249.164 222.137 C 249.644 214.493,253.855 210.663,258.441 213.700 " stroke="none" fill="#ecf3f3" fill-rule="evenodd"></path><path id="path1" d="M98.516 96.386 C 97.810 96.816,96.774 97.861,96.214 98.707 L 95.196 100.246 95.192 212.738 C 95.189 296.201,95.305 325.458,95.644 326.115 C 98.110 330.901,103.093 331.294,106.494 326.972 L 107.400 325.820 107.504 213.410 C 107.581 131.026,107.489 100.709,107.160 99.910 C 105.697 96.357,101.422 94.614,98.516 96.386 M172.481 96.596 C 161.820 99.140,154.660 105.006,150.618 114.512 C 144.044 129.970,149.299 149.113,158.772 144.214 C 162.089 142.499,162.906 139.780,161.612 134.761 C 158.503 122.701,163.286 113.445,174.826 109.190 C 178.920 107.681,181.371 107.648,185.276 109.049 C 191.062 111.125,194.349 113.636,197.005 118.008 C 201.051 124.669,205.768 125.874,209.208 121.126 C 210.776 118.961,210.785 116.753,209.239 113.129 C 203.850 100.498,187.310 93.059,172.481 96.596 M271.399 132.827 C 261.450 134.083,257.600 136.458,257.600 141.339 C 257.600 146.966,261.543 148.734,268.949 146.429 C 278.334 143.508,287.956 148.296,292.341 158.068 C 296.325 166.947,292.475 177.637,283.589 182.374 C 277.011 185.879,276.284 192.336,282.147 195.174 C 288.971 198.478,301.785 187.337,305.299 175.046 C 309.633 159.889,304.402 145.921,291.212 137.427 C 286.052 134.103,277.329 132.078,271.399 132.827 M190.000 160.847 C 188.732 161.350,186.503 163.473,185.766 164.880 C 183.242 169.698,191.051 175.852,195.490 172.544 C 201.227 168.268,196.529 158.258,190.000 160.847 M212.363 171.326 C 210.287 172.416,208.476 175.144,207.160 179.163 C 206.685 180.613,205.870 182.830,205.348 184.088 C 202.228 191.617,210.422 197.682,215.511 191.609 C 217.964 188.682,221.427 179.090,221.095 176.143 C 220.600 171.752,216.187 169.317,212.363 171.326 M236.601 179.430 C 228.372 183.721,233.528 195.204,241.871 191.166 C 245.990 189.172,246.785 184.959,243.690 181.529 C 241.337 178.921,238.939 178.211,236.601 179.430 M157.314 183.587 C 154.479 185.316,153.801 187.697,153.938 195.446 C 154.109 205.087,153.914 205.582,148.615 208.941 C 133.937 218.246,140.144 242.449,157.377 243.108 C 166.750 243.467,168.715 232.161,159.592 230.367 C 152.904 229.051,151.096 223.232,156.265 219.660 C 157.792 218.606,157.850 218.599,167.000 218.397 C 177.684 218.162,178.320 217.987,179.680 214.913 C 181.880 209.939,178.708 206.149,171.980 205.714 C 166.551 205.362,166.614 205.478,166.544 195.802 C 166.489 188.229,166.465 188.028,165.419 186.106 C 163.653 182.861,160.243 181.801,157.314 183.587 M252.916 213.586 C 250.356 215.147,249.477 217.149,249.164 222.137 C 248.721 229.200,246.980 238.597,245.381 242.565 C 244.621 244.448,244.000 246.257,244.000 246.585 C 244.000 248.286,237.073 260.406,233.933 264.200 C 226.173 273.577,219.964 279.220,212.799 283.411 C 198.024 292.053,185.123 295.157,165.800 294.719 C 155.460 294.484,153.600 293.540,153.600 288.528 C 153.600 285.304,154.378 284.409,158.214 283.225 C 167.854 280.247,167.735 270.322,158.059 270.353 C 143.705 270.398,135.400 286.018,143.040 298.602 C 144.945 301.741,146.129 302.881,150.424 305.713 C 153.814 307.948,154.129 308.946,153.874 316.655 C 153.657 323.206,154.000 325.600,155.420 327.462 C 158.165 331.061,162.464 330.913,165.208 327.126 L 166.400 325.480 166.401 318.040 C 166.404 307.483,166.621 307.200,174.727 307.200 C 182.167 307.200,192.331 305.882,197.457 304.251 C 199.846 303.492,202.797 302.590,204.015 302.249 C 205.233 301.907,207.123 301.152,208.215 300.571 C 209.307 299.990,211.142 299.162,212.293 298.731 C 213.444 298.300,215.285 297.329,216.384 296.574 C 217.482 295.818,218.545 295.200,218.747 295.200 C 223.224 295.200,244.315 274.549,248.978 265.600 C 249.494 264.610,250.565 262.837,251.358 261.660 C 252.151 260.483,252.800 259.303,252.800 259.039 C 252.800 258.774,253.512 257.086,254.381 255.288 C 255.786 252.383,259.555 240.976,260.159 237.800 C 260.505 235.982,261.513 226.666,261.803 222.600 C 262.312 215.488,257.613 210.722,252.916 213.586 " stroke="none" fill="#434242" fill-rule="evenodd"></path></g></svg>